<svg width="16" height="16" xmlns="http://www.w3.org/2000/svg" xmlns:xlink="http://www.w3.org/1999/xlink" xml:space="preserve" overflow="hidden"><defs><clipPath id="clip0"><rect x="632" y="352" width="16" height="16"/></clipPath></defs><g clip-path="url(#clip0)" transform="translate(-632 -352)"><path d="M648 360.049C648 355.603 644.418 351.999 640 351.999 635.58 352 631.998 355.603 631.998 360.05 631.998 364.067 634.924 367.397 638.748 368.001L638.748 362.376 636.718 362.376 636.718 360.05 638.75 360.05 638.75 358.275C638.75 356.258 639.945 355.144 641.772 355.144 642.648 355.144 643.563 355.301 643.563 355.301L643.563 357.281 642.554 357.281C641.561 357.281 641.251 357.902 641.251 358.539L641.251 360.049 643.469 360.049 643.115 362.375 641.25 362.375 641.25 368C645.074 367.396 648 364.066 648 360.049Z" fill="#FFFFFF"/></g></svg>