<svg width="16" height="16" xmlns="http://www.w3.org/2000/svg" xmlns:xlink="http://www.w3.org/1999/xlink" xml:space="preserve" overflow="hidden"><defs><clipPath id="clip0"><rect x="648" y="368" width="16" height="16"/></clipPath></defs><g clip-path="url(#clip0)" transform="translate(-648 -368)"><path d="M656 368C653.829 368 653.556 368.01 652.703 368.048 651.85 368.088 651.269 368.222 650.76 368.42 650.226 368.621 649.742 368.936 649.343 369.343 648.936 369.743 648.621 370.226 648.42 370.76 648.222 371.268 648.087 371.85 648.048 372.7 648.01 373.555 648 373.827 648 376.001 648 378.173 648.01 378.445 648.048 379.298 648.088 380.15 648.222 380.731 648.42 381.24 648.625 381.766 648.898 382.212 649.343 382.657 649.787 383.102 650.233 383.376 650.759 383.58 651.269 383.778 651.849 383.913 652.701 383.952 653.555 383.99 653.827 384 656 384 658.173 384 658.444 383.99 659.298 383.952 660.149 383.912 660.732 383.778 661.241 383.58 661.775 383.379 662.258 383.064 662.657 382.657 663.102 382.212 663.375 381.766 663.58 381.24 663.777 380.731 663.912 380.15 663.952 379.298 663.99 378.445 664 378.173 664 376 664 373.827 663.99 373.555 663.952 372.701 663.912 371.85 663.777 371.268 663.58 370.76 663.379 370.226 663.064 369.743 662.657 369.343 662.258 368.936 661.774 368.621 661.24 368.42 660.73 368.222 660.148 368.087 659.297 368.048 658.443 368.01 658.172 368 655.998 368L656.001 368ZM655.283 369.442 656.001 369.442C658.137 369.442 658.39 369.449 659.233 369.488 660.013 369.523 660.437 369.654 660.719 369.763 661.092 369.908 661.359 370.082 661.639 370.362 661.919 370.642 662.092 370.908 662.237 371.282 662.347 371.563 662.477 371.987 662.512 372.767 662.551 373.61 662.559 373.863 662.559 375.998 662.559 378.133 662.551 378.387 662.512 379.23 662.477 380.01 662.346 380.433 662.237 380.715 662.109 381.062 661.904 381.376 661.638 381.634 661.358 381.914 661.092 382.087 660.718 382.232 660.438 382.342 660.014 382.472 659.233 382.508 658.39 382.546 658.137 382.555 656.001 382.555 653.865 382.555 653.611 382.546 652.768 382.508 651.988 382.472 651.565 382.342 651.283 382.232 650.935 382.104 650.621 381.9 650.363 381.634 650.097 381.376 649.892 381.062 649.763 380.714 649.654 380.433 649.523 380.009 649.488 379.229 649.45 378.386 649.442 378.133 649.442 375.996 649.442 373.86 649.45 373.608 649.488 372.765 649.524 371.985 649.654 371.561 649.764 371.279 649.909 370.906 650.083 370.639 650.363 370.359 650.643 370.079 650.909 369.906 651.283 369.761 651.565 369.651 651.988 369.521 652.768 369.485 653.506 369.451 653.792 369.441 655.283 369.44L655.283 369.442ZM660.271 370.77C659.741 370.77 659.311 371.2 659.311 371.73 659.311 372.26 659.741 372.69 660.271 372.69 660.801 372.69 661.231 372.26 661.231 371.73 661.231 371.2 660.801 370.77 660.271 370.77ZM656.001 371.892C653.732 371.857 651.864 373.667 651.828 375.936 651.793 378.206 653.604 380.074 655.873 380.109 655.916 380.11 655.958 380.11 656.001 380.109 658.27 380.074 660.081 378.206 660.045 375.936 660.011 373.717 658.22 371.927 656.001 371.892ZM656.001 373.333C657.474 373.333 658.668 374.527 658.668 376 658.668 377.473 657.474 378.667 656.001 378.667 654.528 378.667 653.334 377.473 653.334 376 653.334 374.527 654.528 373.333 656.001 373.333Z" fill="#FFFFFF"/></g></svg>