<svg width="16" height="16" xmlns="http://www.w3.org/2000/svg" xmlns:xlink="http://www.w3.org/1999/xlink" xml:space="preserve" overflow="hidden"><defs><clipPath id="clip0"><rect x="632" y="352" width="16" height="16"/></clipPath></defs><g clip-path="url(#clip0)" transform="translate(-632 -352)"><path d="M633.885 352.511C634.567 351.83 635.672 351.831 636.353 352.513 636.403 352.564 636.451 352.617 636.495 352.674L638.29 354.98C638.619 355.403 638.735 355.954 638.605 356.474L638.058 358.664C638 358.895 638.068 359.139 638.236 359.307L640.693 361.764C640.862 361.932 641.106 362 641.337 361.942L643.526 361.395C644.046 361.265 644.597 361.381 645.02 361.71L647.326 363.504C648.155 364.149 648.231 365.374 647.489 366.115L646.455 367.149C645.715 367.889 644.609 368.214 643.578 367.851 640.939 366.922 638.543 365.412 636.568 363.431 634.587 361.456 633.077 359.06 632.148 356.422 631.786 355.392 632.111 354.285 632.851 353.545L633.885 352.511Z" fill="#4472C4" fill-rule="evenodd"/></g></svg>