<svg width="16" height="16" xmlns="http://www.w3.org/2000/svg" xmlns:xlink="http://www.w3.org/1999/xlink" xml:space="preserve" overflow="hidden"><defs><clipPath id="clip0"><rect x="632" y="352" width="16" height="16"/></clipPath></defs><g clip-path="url(#clip0)" transform="translate(-632 -352)"><path d="M633 360C633 363.866 636.134 367 640 367 643.866 367 647 363.866 647 360 647 356.134 643.866 353 640 353 636.134 353 633 356.134 633 360ZM648 360C648 364.418 644.418 368 640 368 635.582 368 632 364.418 632 360 632 355.582 635.582 352 640 352 644.418 352 648 355.582 648 360ZM640.5 363.5C640.5 363.776 640.276 364 640 364 639.724 364 639.5 363.776 639.5 363.5L639.5 357.707 637.354 359.854C637.159 360.049 636.841 360.049 636.646 359.854 636.451 359.658 636.451 359.342 636.646 359.146L639.646 356.146C639.841 355.951 640.158 355.95 640.353 356.145 640.353 356.145 640.354 356.146 640.354 356.146L643.354 359.146C643.549 359.342 643.549 359.658 643.354 359.854 643.159 360.049 642.841 360.049 642.646 359.854L640.5 357.707 640.5 363.5Z" fill="#7E1E18" fill-rule="evenodd"/></g></svg>